<svg width="24px" height="24px" viewBox="0 0 24 24" xmlns="http://www.w3.org/2000/svg">
  <path fill="currentColor" d="M13.408 10.17c-1.059 0-1.92-.861-1.92-1.92 0-1.059.861-1.92 1.92-1.92 1.059 0 1.92.861 1.92 1.92 0 1.059-.861 1.92-1.92 1.92zm-6.8 0c-1.059 0-1.92-.861-1.92-1.92 0-1.059.861-1.92 1.92-1.92 1.059 0 1.92.861 1.92 1.92 0 1.059-.861 1.92-1.92 1.92zm14.2 3.02c0 2.957-2.399 5.356-5.356 5.356-2.957 0-5.356-2.399-5.356-5.356v-1.05h10.712v1.05zm-11.72 0c0 2.957-2.399 5.356-5.356 5.356C.775 18.546-1.624 16.147-1.624 13.19v-1.05h10.712v1.05z"/>
</svg>
